<svg width="0" height="0" class="hidden">
  <symbol fill="none" xmlns="http://www.w3.org/2000/svg" viewBox="0 0 34 31" id="VectorA">
    <path d="M0.704102 31.5766H2.49079L6.77507 22.4436H19.2945L23.7486 31.5766H32.1284L15.9161 0.00634766L0.704102 31.5766ZM7.53001 20.8319L12.9089 9.61962L18.4703 20.8319H7.53001Z" fill="black"></path>
  </symbol>

  <symbol fill="none" xmlns="http://www.w3.org/2000/svg" viewBox="0 0 31 33" id="VectorG">
    <path d="M23.1452 22.905C23.1452 27.5252 20.5784 30.3946 16.4451 30.3946C11.4373 30.3946 8.44902 25.0918 8.44902 16.2181C8.44902 11.8633 9.34237 8.19751 11.0284 5.63144C12.7018 3.08434 15.0988 1.7381 17.9613 1.7381C22.5286 1.7381 26.3159 4.33577 27.8447 8.50721L27.9264 8.74106H29.6188L29.4552 8.27336C27.593 2.93897 23.1074 0 16.8351 0C7.23483 0 0 6.93344 0 16.1296C0 20.6423 1.69232 24.7253 4.75611 27.6326C7.73183 30.4515 11.7896 32 16.1871 32C18.6847 32 21.1383 31.2226 23.1577 29.7942V31.5702H30.7386V16.2939H23.1577L23.1452 22.905Z" fill="black"></path>
  </symbol>

  <symbol fill="none" xmlns="http://www.w3.org/2000/svg" viewBox="0 0 9 32" id="VectorI">
    <path d="M8.45749 0.42981H0.788574V31.5766H8.45749V0.42981Z" fill="black"></path>
  </symbol>

   <symbol fill="none" xmlns="http://www.w3.org/2000/svg" viewBox="0 0 28 33" id="VectorL">
    <path d="M8.65476 0.42981H0.98584V31.5766H24.2254V29.9522H8.65476V0.42981Z" fill="black"></path>
  </symbol>

  <symbol fill="none" xmlns="http://www.w3.org/2000/svg" viewBox="0 0 33 32" id="VectorM">
    <path d="M18.3227 21.3123L8.99288 0.42981H0.915039V31.5702H2.53186V4.31051L14.8751 32H15.7999L26.6144 4.62653V31.5702H34.1953V0.42981H26.583L18.3227 21.3123Z" fill="black"></path>
  </symbol>

  <symbol fill="none" xmlns="http://www.w3.org/2000/svg" viewBox="0 0 32 33" id="VectorR">
    <path d="M26.1209 25.8503L24.7368 21.8622C23.8812 19.3277 22.1826 17.6907 19.5529 16.8944C20.9118 16.5531 22.1385 16.0411 23.1703 15.3838C25.5735 13.8543 26.8443 11.6042 26.8443 8.88014C26.8443 6.05493 25.605 3.87441 23.164 2.39544C21.0439 1.10609 18.0304 0.42981 14.4633 0.42981H0.050293V31.5766H7.71921V17.5959H11.085C14.5577 17.5959 15.9103 18.7083 17.1182 22.5637L18.5526 26.9564C19.0685 28.5301 19.5088 29.8827 20.4777 31.3174L20.6475 31.5702H29.3797L28.5618 30.6285C27.291 29.1685 26.794 27.8475 26.1209 25.8503ZM18.9552 9.10135C18.9552 13.6078 16.5646 15.9905 12.0412 15.9905H7.71921V2.03518H12.2111C16.6212 2.03518 18.9552 4.48116 18.9552 9.10135Z" fill="black"></path>
  </symbol>

  <symbol fill="none" xmlns="http://www.w3.org/2000/svg" viewBox="0 0 5 8" id="arrow">
    <path d="M4 1L1 4L4 7" stroke="#2D2D2D" stroke-linecap="square"></path>
  </symbol>

  <symbol fill="none" xmlns="http://www.w3.org/2000/svg" viewBox="0 0 20 18" id="bordr">
    <path d="M17.5268 9.27323L17.5169 9.28197L17.5075 9.29122L9.98294 16.698L2.52079 9.33589L2.12607 8.93171C1.36603 8.1005 0.899902 6.98363 0.899902 5.75276C0.899902 3.17305 2.94455 1.09998 5.44454 1.09998C7.23261 1.09998 8.78598 2.15826 9.52789 3.70769L9.66391 3.99176H9.97886H10.0209H10.3359L10.4719 3.70769C11.2138 2.15826 12.7672 1.09998 14.5553 1.09998C17.0553 1.09998 19.0999 3.17305 19.0999 5.75276C19.0999 7.16109 18.4895 8.42064 17.5268 9.27323Z" stroke="#374454"></path>
  </symbol>

  <symbol fill="none" xmlns="http://www.w3.org/2000/svg" viewBox="0 0 15 15" id="Ellipse 1">
    <path d="M14.5001 7.47557C14.5001 11.1759 11.5004 14.1756 7.8001 14.1756C4.09979 14.1756 1.1001 11.1759 1.1001 7.47557C1.1001 3.77527 4.09979 0.775574 7.8001 0.775574C11.5004 0.775574 14.5001 3.77527 14.5001 7.47557Z" stroke="#374454"></path>
  </symbol>

  <symbol fill="none" xmlns="http://www.w3.org/2000/svg" viewBox="0 0 18 9" id="Ellipse 2">
    <path d="M16.8845 8.10001H1.11566C1.37361 3.96992 4.80499 0.700012 9.0001 0.700012C13.1952 0.700012 16.6266 3.96992 16.8845 8.10001Z" stroke="#374454"></path>
  </symbol>

  <symbol fill="none" xmlns="http://www.w3.org/2000/svg" viewBox="0 0 56 57" id="icon">
    <rect opacity="0.3" y="0.491699" width="56" height="56" rx="2" fill="#E4CFCF"></rect>
  </symbol>

  <symbol fill="none" xmlns="http://www.w3.org/2000/svg" viewBox="0 0 8 8" id="Rectangle 50">
    <path d="M7 7.6V4C7 2.34315 5.65685 1 4 1V1C2.34315 1 1 2.34314 1 4V7.6" stroke="#374454"></path>
  </symbol>

  <symbol fill="none" xmlns="http://www.w3.org/2000/svg" viewBox="0 0 16 15" id="Rectangle 248">
    <rect x="1.3999" y="0.799988" width="13.2" height="13.2" stroke="#2D2D2D"></rect>
  </symbol>

   <symbol fill="none" xmlns="http://www.w3.org/2000/svg" viewBox="0 0 30 29" id="Vector">
    <path d="M9.40518 24.5117L9.25947 24.1772L8.8964 24.2139L5.36402 24.5716C4.96601 24.6009 4.57525 24.4111 4.38072 24.0735L4.3796 24.0716L1.23359 18.6689C1.23342 18.6686 1.23326 18.6683 1.23309 18.668C1.03424 18.3222 1.06167 17.8945 1.29366 17.5723L3.44455 14.6941L3.66485 14.3993L3.44885 14.1013L1.37261 11.2372C1.37235 11.2368 1.37209 11.2364 1.37183 11.2361C1.15802 10.9364 1.13494 10.5094 1.33581 10.1709L1.33788 10.1673L4.485 4.76268L4.48501 4.76269L4.48612 4.76075C4.68527 4.41521 5.07551 4.22594 5.46555 4.27552L5.46555 4.27555L5.47067 4.27614L9.05448 4.69418L9.41721 4.73649L9.56787 4.40384L11.0285 1.17896L11.0293 1.17719C11.1879 0.823284 11.5489 0.591797 11.9433 0.591797H18.2376C18.6402 0.591797 19.0039 0.831732 19.1655 1.1896L20.5947 4.48602L20.7401 4.82142L21.1038 4.78459L24.6357 4.42695C25.0471 4.39754 25.4241 4.58595 25.6195 4.92498L25.6206 4.92691L28.7666 10.3296C28.7667 10.3299 28.7668 10.3301 28.767 10.3303C28.9659 10.676 28.9386 11.1035 28.7069 11.4257L26.5564 14.2885L26.3348 14.5836L26.5513 14.8823L28.6293 17.7489C28.8592 18.0659 28.8784 18.4774 28.6794 18.8127L28.6774 18.8162L25.5302 24.2209L25.5291 24.2228C25.3292 24.5698 24.9527 24.758 24.5481 24.7079L24.5446 24.7074L20.9608 24.2894L20.598 24.2471L20.4474 24.5798L18.9889 27.7999C18.8142 28.1629 18.4477 28.3918 18.0569 28.3918H11.7626C11.3599 28.3918 10.9961 28.1517 10.8345 27.7937C10.8342 27.793 10.8339 27.7922 10.8335 27.7915L9.40518 24.5117Z" stroke="#2D2D2D"></path>
  </symbol>

  <symbol fill="none" xmlns="http://www.w3.org/2000/svg" viewBox="0 0 4 5" id="Vector 3">
    <path d="M0.800049 1.27557L3.20005 3.67558" stroke="#374454" stroke-linecap="square"></path>
  </symbol>

  <symbol fill="none" xmlns="http://www.w3.org/2000/svg" viewBox="0 0 22 13" id="Vector 7">
    <path d="M15.8889 4.37631L12.7778 0.991699H4.33339L1.22228 4.37631L7.88894 11.9917L11.7778 8.18401M18.5556 4.37631H12.7778L10.5556 6.91478L15.4445 11.9917L20.7778 6.91478L18.5556 4.37631Z" stroke="#637284"></path>
  </symbol>

  <symbol fill="none" xmlns="http://www.w3.org/2000/svg" viewBox="0 0 10 15" id="Vector 11">
    <path d="M1.32102 0.500008L8.39209 7.57108L1.32102 14.6421" stroke="#637284"></path>
  </symbol>

  <symbol fill="none" xmlns="http://www.w3.org/2000/svg" viewBox="0 0 33 33" id="Vector 14">
    <path d="M1 0V30C1 31.1046 1.89543 32 3 32H33" stroke="#3E62A5" stroke-width="2"></path>
  </symbol>

  <symbol fill="none" xmlns="http://www.w3.org/2000/svg" viewBox="0 0 33 33" id="Vector 14s">
    <path d="M1 0V30C1 31.1046 1.89543 32 3 32H33" stroke="#dbdee5" stroke-width="2"></path>
  </symbol>

  <symbol fill="none" xmlns="http://www.w3.org/2000/svg" viewBox="0 0 63 63" id="Vector 15">
    <path d="M62 63L62 3C62 1.89543 61.1046 1 60 1L6.43349e-06 0.999996" stroke="#3E62A5" stroke-width="2"></path>
  </symbol>

   <symbol fill="none" xmlns="http://www.w3.org/2000/svg" viewBox="0 0 32 32" id="Rectangle 1394">
    <rect width="32" height="32" fill="#EB6E79"></rect>
  </symbol>

  <symbol fill="none" xmlns="http://www.w3.org/2000/svg" viewBox="0 0 16 16" id="Rectangle 1395">
    <rect opacity="0.2" width="16" height="16" fill="#EB6E79"></rect>
  </symbol>

   <symbol fill="none" xmlns="http://www.w3.org/2000/svg" viewBox="0 0 4 5" id="Rectangle 45">
    <rect y="0.492188" width="4" height="4" rx="2" fill="#2D2D2D"></rect>
  </symbol>

   <symbol fill="none" xmlns="http://www.w3.org/2000/svg" viewBox="0 0 4 5" id="Rectangle 45 (1)">
    <rect y="0.492188" width="4" height="4" rx="2" fill="#DBDEE6"></rect>
  </symbol>

   <symbol fill="none" xmlns="http://www.w3.org/2000/svg" viewBox="0 0 158 159" id="Ellipse 76">
    <circle opacity="0.3" cx="79" cy="79.4917" r="79" fill="#DBDEE6"></circle>
  </symbol>

    <symbol fill="none" xmlns="http://www.w3.org/2000/svg" viewBox="0 0 338 339" id="Rectangle 1396">
    <rect y="0.491699" width="338" height="338" rx="2" fill="#EB6E79"></rect>
  </symbol>

  <symbol fill="none" xmlns="http://www.w3.org/2000/svg" viewBox="0 0 21 40" id="Vector-video">
    <path d="M20.4526 19.9999L0.967085 0.514384L0.967079 39.4855L20.4526 19.9999Z" fill="#2D2D2D"></path>
  </symbol>

  <symbol fill="none" xmlns="http://www.w3.org/2000/svg" viewBox="0 0 10 11" id="Vector (1)">
    <path d="M5.0002 9.79189C2.63227 9.79189 0.700195 7.85982 0.700195 5.49189C0.700195 3.12397 2.63227 1.19189 5.0002 1.19189C7.36812 1.19189 9.30019 3.12397 9.30019 5.49189C9.30019 7.85982 7.36812 9.79189 5.0002 9.79189Z" stroke="#2D2D2D"></path>
  </symbol>

   <symbol fill="none" xmlns="http://www.w3.org/2000/svg" viewBox="0 0 83 83" id="bg">
    <path d="M1 41.4922C1 19.4122 19.121 1.49219 41.5 1.49218C63.879 1.49218 82 19.4122 82 41.4922C82 63.5722 63.879 81.4922 41.5 81.4922C19.121 81.4922 1.00001 63.5722 1 41.4922Z" fill="#FAFAFA" stroke="#F2F2F2" stroke-width="2"></path>
  </symbol>

  <symbol fill="none" xmlns="http://www.w3.org/2000/svg" viewBox="0 0 16 8" id="Rectangle 122">
    <path d="M0.5 1.31929H8.29999C11.8898 1.31929 14.8 4.22944 14.8 7.81929V7.81929" stroke="white"></path>
  </symbol>

   <symbol fill="none" xmlns="http://www.w3.org/2000/svg" viewBox="0 0 6 9" id="Vector 15">
    <path d="M4.78942 8.22029L1.2793 4.71016L4.78942 1.20003" stroke="white"></path>
  </symbol>

   <symbol fill="none" xmlns="http://www.w3.org/2000/svg" viewBox="0 0 14 2" id="Vector 45">
    <path d="M0.150391 0.598647L13.1504 0.598648" stroke="white"></path>
  </symbol>

    <symbol fill="none" xmlns="http://www.w3.org/2000/svg" viewBox="0 0 5 9" id="Vector 15 (1)">
    <path d="M0.511358 1.00004L4.02148 4.51016L0.511358 8.02029" stroke="white"></path>
  </symbol>

   <symbol fill="none" xmlns="http://www.w3.org/2000/svg" viewBox="0 0 15 18" id="Rectangle 47">
    <path d="M1.19922 8.8174V4.15265C3.76975 4.00813 6.03267 2.75653 7.44922 0.884913C8.86577 2.75653 11.1287 4.00813 13.6992 4.15265V8.8174C13.6992 12.4026 11.2528 15.6166 7.44922 17.4472C3.64559 15.6166 1.19922 12.4026 1.19922 8.8174Z" stroke="white"></path>
  </symbol>

   <symbol fill="none" xmlns="http://www.w3.org/2000/svg" viewBox="0 0 5 5" id="Star 3">
    <path d="M2.44922 0.75L3.16338 2.01704L4.5891 2.30471L3.60475 3.37546L3.77174 4.82029L2.44922 4.215L1.1267 4.82029L1.29369 3.37546L0.309342 2.30471L1.73506 2.01704L2.44922 0.75Z" fill="white"></path>
  </symbol>

  <symbol fill="none" xmlns="http://www.w3.org/2000/svg" viewBox="0 0 12 12" id="cheo">
    <path d="M0.5 1L11.5 11M0.5 11L11.5 1" stroke="white"></path>
  </symbol>

  <symbol fill="none" xmlns="http://www.w3.org/2000/svg" viewBox="0 0 3 3" id="arrow-top-right">
    <path d="M0.3 1L2.5 1L2.5 3" stroke="white"></path>
  </symbol>

   <symbol fill="none" xmlns="http://www.w3.org/2000/svg" viewBox="0 0 3 3" id="arrow-bottom-right">
    <path d="M2.5 -6.65556e-07L2.5 2L0.3 2" stroke="white"></path>
  </symbol>

   <symbol fill="none" xmlns="http://www.w3.org/2000/svg" viewBox="0 0 3 3" id="arrow-bottom-left">
    <path d="M2.7 2L0.5 2L0.5 -1.01364e-06" stroke="white"></path>
  </symbol>

   <symbol fill="none" xmlns="http://www.w3.org/2000/svg" viewBox="0 0 3 3" id="arrow-top-left">
    <path d="M2.7 1L0.5 1L0.5 3" stroke="white"></path>
  </symbol>

  <symbol fill="none" xmlns="http://www.w3.org/2000/svg" viewBox="0 0 12 12" id="close">
    <path d="M2 2L10 10M2 10L10 2" stroke="#FAFAFA" stroke-width="2" stroke-linecap="square"></path>
  </symbol>

  <symbol fill="none" xmlns="http://www.w3.org/2000/svg" viewBox="0 0 40 40" id="border">
    <circle cx="20" cy="20" r="19.5" fill="white" stroke="#DBDEE6"></circle>
  </symbol>

  <symbol fill="none" xmlns="http://www.w3.org/2000/svg" viewBox="0 0 15 12" id="white_background">
    <path d="M13.4644 2.98737C13.4735 3.11756 13.4735 3.24775 13.4735 3.37914C13.4735 7.38269 10.3778 12 4.71725 12V11.9976C3.04509 12 1.40768 11.5284 0 10.6393C0.243144 10.6681 0.487508 10.6825 0.73248 10.6831C2.11822 10.6843 3.46435 10.2265 4.55454 9.38356C3.23766 9.35897 2.08288 8.51362 1.67946 7.2795C2.14077 7.36709 2.61609 7.34909 3.06886 7.2273C1.63315 6.94172 0.600244 5.6998 0.600244 4.25749C0.600244 4.24429 0.600244 4.23169 0.600244 4.21909C1.02803 4.45368 1.50701 4.58387 1.99695 4.59827C0.644729 3.70852 0.22791 1.93744 1.04449 0.552723C2.60695 2.4456 4.91225 3.59633 7.38696 3.71812C7.13894 2.66579 7.47776 1.56306 8.27727 0.823306C9.51676 -0.323822 11.4662 -0.265026 12.6313 0.954697C13.3205 0.820906 13.9811 0.571921 14.5856 0.219144C14.3559 0.920499 13.8751 1.51626 13.2328 1.89484C13.8428 1.82404 14.4388 1.66325 15 1.41787C14.5868 2.02743 14.0664 2.5584 13.4644 2.98737Z" fill="#2D2D2D"></path>
  </symbol>

   <symbol fill="none" xmlns="http://www.w3.org/2000/svg" viewBox="0 0 6 12" id="XMLID_835_">
    <path d="M0.191577 6.3912H1.49357V11.8065C1.49357 11.9134 1.57932 12 1.68515 12H3.89273C3.99856 12 4.08431 11.9134 4.08431 11.8065V6.41671H5.58106C5.67838 6.41671 5.76026 6.34293 5.77137 6.24526L5.9987 4.25164C6.00494 4.19679 5.98774 4.14186 5.95142 4.10071C5.91505 4.05952 5.86302 4.03595 5.80842 4.03595H4.08438V2.78625C4.08438 2.40952 4.28516 2.21849 4.68118 2.21849C4.73762 2.21849 5.80842 2.21849 5.80842 2.21849C5.91425 2.21849 6 2.13182 6 2.02494V0.194981C6 0.0880645 5.91425 0.00143226 5.80842 0.00143226H4.25493C4.24397 0.000890323 4.21964 0 4.18377 0C3.91422 0 2.9773 0.053458 2.2372 0.741329C1.41717 1.5036 1.53116 2.4163 1.5584 2.57454V4.03591H0.191577C0.0857499 4.03591 0 4.12254 0 4.22946V6.19761C0 6.30453 0.0857499 6.3912 0.191577 6.3912Z" fill="#2D2D2D"></path>
  </symbol>

   <symbol fill="none" xmlns="http://www.w3.org/2000/svg" viewBox="0 0 18 18" id="instagram-out">
    <path d="M3.3793 0.815576C2.80977 1.03706 2.32812 1.33237 1.84648 1.81401C1.36484 2.29214 1.06953 2.77729 0.848047 3.34331C0.633594 3.89175 0.489453 4.52104 0.447266 5.44214C0.405078 6.36323 0.394531 6.65855 0.394531 9.00698C0.394531 11.3554 0.405078 11.6507 0.447266 12.5718C0.489453 13.4929 0.637109 14.1222 0.848047 14.6707C1.06953 15.2402 1.36484 15.7218 1.84648 16.2035C2.32812 16.6851 2.80977 16.9804 3.3793 17.2019C3.92773 17.4164 4.55703 17.5605 5.47813 17.6027C6.39922 17.6449 6.69453 17.6554 9.04297 17.6554C11.3914 17.6554 11.6867 17.6449 12.6078 17.6027C13.5289 17.5605 14.1582 17.4128 14.7066 17.2019C15.2762 16.9804 15.7578 16.6851 16.2395 16.2035C16.7211 15.7218 17.0164 15.2402 17.2379 14.6707C17.4523 14.1222 17.5965 13.4929 17.6387 12.5718C17.6809 11.6507 17.6914 11.3554 17.6914 9.00698C17.6914 6.65855 17.6809 6.36323 17.6387 5.44214C17.5965 4.52104 17.4488 3.89175 17.2379 3.34331C17.0164 2.77729 16.7211 2.29214 16.243 1.81401C15.7613 1.33237 15.2797 1.03706 14.7102 0.815576C14.1617 0.601123 13.5324 0.456982 12.6113 0.414795C11.6902 0.372607 11.3949 0.362061 9.04648 0.362061C6.69805 0.362061 6.40273 0.372607 5.48164 0.414795C4.55703 0.453467 3.92773 0.601123 3.3793 0.815576ZM12.5375 1.9687C13.3812 2.00737 13.8383 2.148 14.1441 2.26753C14.5484 2.42573 14.8367 2.61206 15.1391 2.9144C15.4414 3.21675 15.6277 3.50503 15.7859 3.90933C15.9055 4.21519 16.0461 4.67222 16.0848 5.51597C16.127 6.42651 16.134 6.70073 16.134 9.0105C16.134 11.3203 16.1234 11.5945 16.0848 12.505C16.0461 13.3488 15.9055 13.8058 15.7859 14.1117C15.6277 14.516 15.4414 14.8042 15.1391 15.1066C14.8367 15.4089 14.5484 15.5953 14.1441 15.7535C13.8383 15.873 13.3812 16.0136 12.5375 16.0523C11.627 16.0945 11.3527 16.1015 9.04297 16.1015C6.7332 16.1015 6.45898 16.091 5.54844 16.0523C4.70469 16.0136 4.24766 15.873 3.9418 15.7535C3.5375 15.5953 3.24922 15.4089 2.94688 15.1066C2.64453 14.8042 2.4582 14.516 2.3 14.1117C2.18047 13.8058 2.03984 13.3488 2.00117 12.505C1.95898 11.5945 1.95195 11.3203 1.95195 9.0105C1.95195 6.70073 1.9625 6.42651 2.00117 5.51597C2.03984 4.67222 2.18047 4.21519 2.3 3.90933C2.4582 3.50503 2.64453 3.21675 2.94688 2.9144C3.24922 2.61206 3.5375 2.42573 3.9418 2.26753C4.24766 2.148 4.70469 2.00737 5.54844 1.9687C6.45898 1.92651 6.7332 1.91948 9.04297 1.91948C11.3527 1.91948 11.627 1.92651 12.5375 1.9687Z" fill="#2D2D2D"></path>
  </symbol>

   <symbol fill="none" xmlns="http://www.w3.org/2000/svg" viewBox="0 0 10 10" id="instagram-on-round">
    <path d="M0.603516 5.01049C0.603516 7.46439 2.59336 9.45072 5.04375 9.45072C7.49414 9.45072 9.48398 7.46088 9.48398 5.01049C9.48398 2.56009 7.49766 0.570251 5.04375 0.570251C2.58984 0.570251 0.603516 2.55658 0.603516 5.01049ZM7.92656 5.01049C7.92656 6.60306 6.63633 7.8933 5.04375 7.8933C3.45117 7.8933 2.16094 6.60306 2.16094 5.01049C2.16094 3.41791 3.45117 2.12767 5.04375 2.12767C6.63633 2.12767 7.92656 3.41791 7.92656 5.01049Z" fill="#2D2D2D"></path>
  </symbol>

  <symbol fill="none" xmlns="http://www.w3.org/2000/svg" viewBox="0 0 3 3" id="instagram-dot">
    <path d="M1.66211 2.43158C2.23489 2.43158 2.69922 1.96725 2.69922 1.39447C2.69922 0.82169 2.23489 0.357361 1.66211 0.357361C1.08933 0.357361 0.625 0.82169 0.625 1.39447C0.625 1.96725 1.08933 2.43158 1.66211 2.43158Z" fill="#2D2D2D"></path>
  </symbol>

  <symbol fill="none" xmlns="http://www.w3.org/2000/svg" viewBox="0 0 5 7" id="arrow-back">
    <path d="M4.25772 6.06768L1.5 3.30997L4.25772 0.55225" stroke="white"></path>
  </symbol>

   <symbol fill="none" xmlns="http://www.w3.org/2000/svg" viewBox="0 0 8 13" id="Vector 11 white">
    <path d="M0.657599 1.00001L6.31445 6.65686L0.657598 12.3137" stroke="white"></path>
  </symbol>

  <symbol fill="none" xmlns="http://www.w3.org/2000/svg" viewBox="0 0 8 8" id="Star 5">
    <path d="M4 0L5.34015 2.15544L7.80423 2.76393L6.16841 4.70456L6.35114 7.23607L4 6.28L1.64886 7.23607L1.83159 4.70456L0.195774 2.76393L2.65985 2.15544L4 0Z" fill="#374454"></path>
  </symbol>
</svg>
